<svg xmlns="http://www.w3.org/2000/svg" viewBox="0 0 461.72 474.81"><defs><style>.cls-1{fill-opacity:0.5;}.cls-12,.cls-2,.cls-3,.cls-4{fill:none;}.cls-2,.cls-3,.cls-4{stroke:#00adb5;stroke-opacity:0.5;}.cls-2,.cls-3{stroke-linecap:round;}.cls-10,.cls-2,.cls-3,.cls-8{stroke-linejoin:round;}.cls-3{stroke-width:2px;}.cls-5,.cls-8{fill:#f5b9ab;}.cls-5,.cls-9{fill-rule:evenodd;}.cls-6,.cls-9{fill:#00adb5;}.cls-10,.cls-12,.cls-6,.cls-7,.cls-8{stroke:#000;stroke-width:1.4px;}.cls-10,.cls-11,.cls-7{fill:#eee;}</style></defs><title>illustration-1</title><g id="Calque_2" data-name="Calque 2"><ellipse class="cls-1" cx="185.3" cy="462.81" rx="174" ry="12"/></g><g id="Calque_1" data-name="Calque 1"><path class="cls-2" d="M149.69,414.09c-1.31.19-2.85.3-3.17,1.86a4.47,4.47,0,0,0,.58,3.49,5.24,5.24,0,0,0,5.29,2.47c2-.33,4.7-2.12,4.7-4.35a6.18,6.18,0,0,0-1.66-3.46,17.24,17.24,0,0,0-2.5-2.89c-1.36-1.11-2.47-1.22-3.69.09a7.42,7.42,0,0,0-1.6,2.63,4.06,4.06,0,0,0,0,1.3c0,.62-.11-.29,0-.6" transform="translate(-21.68 -33.57)"/><path class="cls-2" d="M156.47,417.63a5.67,5.67,0,0,0,4,1.93,13.54,13.54,0,0,0,4.05-.68c.92-.27,3.89-1.67,1.48-1.78" transform="translate(-21.68 -33.57)"/><path class="cls-2" d="M168,409c-1.47,1.63-3.5,4.81-2.74,7.24a7.69,7.69,0,0,0,1.16,2.17c1,1.48,2.58,1,4,.63a4.23,4.23,0,0,0,2.65-2.16c.55-1.38-.59-3.53-1.54-4.49a38.27,38.27,0,0,0-3.08-3.28c-.32-.24-.56-.51-1-.42s-.65.54,0,.54" transform="translate(-21.68 -33.57)"/><path class="cls-2" d="M271.87,186.58c-1.31.2-2.85.3-3.16,1.86a4.45,4.45,0,0,0,.57,3.5,5.24,5.24,0,0,0,5.29,2.46c2-.33,4.7-2.12,4.7-4.35a6.18,6.18,0,0,0-1.66-3.46,17.24,17.24,0,0,0-2.5-2.89c-1.36-1.11-2.46-1.22-3.69.09a7.51,7.51,0,0,0-1.6,2.63,4.06,4.06,0,0,0,0,1.3c0,.62-.12-.29,0-.6" transform="translate(-21.68 -33.57)"/><path class="cls-2" d="M278.65,190.12a5.63,5.63,0,0,0,4,1.93,13.54,13.54,0,0,0,4.05-.68c.92-.26,3.89-1.67,1.48-1.78" transform="translate(-21.68 -33.57)"/><path class="cls-2" d="M290.14,181.49c-1.47,1.63-3.5,4.81-2.74,7.25a7.77,7.77,0,0,0,1.16,2.16c1,1.48,2.58,1,4,.63a4.21,4.21,0,0,0,2.65-2.15c.55-1.39-.59-3.54-1.54-4.49a38.27,38.27,0,0,0-3.08-3.28c-.32-.25-.55-.52-1-.43s-.65.55,0,.55" transform="translate(-21.68 -33.57)"/><path class="cls-2" d="M159.13,139.4c7.54-3.6,13.64-9.55,19.78-15.15a164.33,164.33,0,0,1,15.19-12.56c1.05-.75,2.54-2.26,4-1.62s2.21,2.37,3.33,3.4a66.42,66.42,0,0,1,7.45,8.6c2.47,3.28-1.24,5.09-3.54,7.24a102.65,102.65,0,0,1-8,7.09c-2.71,2-4.88,4.86-7.36,7.17-3.78,3.53-7.32,7.28-11.09,10.81-2.24,2.1-4.81,3.82-7,6a22,22,0,0,1-2.33,2.4c-.7.52-1.67-1.45-1.92-1.81-2-2.93-5.05-4.94-7-8-1.22-1.93-2-4.31-3.5-6.07-.7-.84-2.44-2.73-1.68-4s3-1.85,4.2-2.75a18.79,18.79,0,0,1,3.16-2.05,15.55,15.55,0,0,0,2.23-1.46c1.84-1.27-.11-.72-1.34-.25" transform="translate(-21.68 -33.57)"/><path class="cls-2" d="M160.28,145.15c4.59,2.84,8.71,7,12.3,11,.09.1,1,.71.83.93-.26.44-3.24-1.53-3.52-1.72" transform="translate(-21.68 -33.57)"/><path class="cls-2" d="M164.83,141c3.73,1.06,5.95,3.09,8.95,5.26a36.65,36.65,0,0,1,3.91,3c.57.54,1,1.24,1.49,1.81.71.79-2.21-.91-2.55-1.11" transform="translate(-21.68 -33.57)"/><path class="cls-2" d="M170.24,137.85c2.61,2.35,5.23,4.67,7.92,6.93a26.68,26.68,0,0,1,3.06,2.65c1.57,1.8-.48-.53-1.18-1.19" transform="translate(-21.68 -33.57)"/><path class="cls-2" d="M173.9,135.61a30.44,30.44,0,0,1,5.59,3.9c.67.65,1.22,1.41,1.94,2,.89.75,1.66,1.61,2.55,2.33,1.27,1,1.46,1.33,0,0" transform="translate(-21.68 -33.57)"/><path class="cls-2" d="M178.6,132.15a41.94,41.94,0,0,1,5.89,5.4,14.55,14.55,0,0,0,2.43,2.64c.92.63,1.57.82.49-.21" transform="translate(-21.68 -33.57)"/><path class="cls-2" d="M183.14,128.64a29.3,29.3,0,0,1,5.23,4.51c.68.84,1.23,1.79,2,2.56,1.56,1.56.49.77-.64-.29" transform="translate(-21.68 -33.57)"/><path class="cls-2" d="M187.32,125c2.63,2.52,4.84,5.47,7.48,8,1.78,1.68-.77-1-1.18-1.48" transform="translate(-21.68 -33.57)"/><path class="cls-2" d="M192.42,122.08c2.22-.9,4.52-2,5.71-4.2a6.46,6.46,0,0,0,.89-1.83c.19-.94.15-.54-.55.08" transform="translate(-21.68 -33.57)"/><path class="cls-2" d="M196,125.13a28.48,28.48,0,0,0,5-5.49c.64-1,1.87-2.29.15-.8" transform="translate(-21.68 -33.57)"/><path class="cls-2" d="M201.63,128.55c1.61-1.74,3-3.36,4.51-5.18.48-.59,1.93-1.35.18-.88" transform="translate(-21.68 -33.57)"/><path class="cls-2" d="M200.36,127.67a31.24,31.24,0,0,0,4.9-4.92c.36-.49.63-1,1-1.53.54-.84.58-.56-.25-.47" transform="translate(-21.68 -33.57)"/><path class="cls-2" d="M164.81,148.05c8.36-3.39,10.42-12.61,17.23-17.82a12.7,12.7,0,0,1,2.47-1.78,14.56,14.56,0,0,0,2-.81c.36-.23,3.34-2.5,1.27-1.56" transform="translate(-21.68 -33.57)"/><path class="cls-2" d="M160.91,145.59a14.51,14.51,0,0,1,3-2.94c.19-.14.49-.16.65-.34a4.13,4.13,0,0,0,.93-1.35c.48-1.81,2.84-1.48,4.09-2.39s2.34-1.75,3.55-2.6a16.19,16.19,0,0,0,3-3c1-1.11,2-2.23,3-3.28.85-.86,2.19-1.65,2.74-2.75s2.18-2.67,3.59-2.44a18.24,18.24,0,1,0,1.72.83" transform="translate(-21.68 -33.57)"/><path class="cls-2" d="M168.48,150c6.28-3.31,9.77-10.54,14-16,1.56-2,3.8-3.35,5.43-5.32.7-.85,2.25-1.75.45-1.73" transform="translate(-21.68 -33.57)"/><path class="cls-2" d="M170.72,152.08c5.7-3.5,9.34-10,13.48-15.17,1.89-2.35,3.7-4.74,5.61-7.07.87-1.06,2.39-1.73.44-.64" transform="translate(-21.68 -33.57)"/><path class="cls-2" d="M173,155.73a83.36,83.36,0,0,0,9.32-11.21c1.77-2.43,3.3-5.17,5.37-7.37,1.19-1.25,2.11-2.73,3.19-4.06.44-.54.74-1.17,1.18-1.7,1-1.2.31-.11-.39.54" transform="translate(-21.68 -33.57)"/><path class="cls-2" d="M173.8,157.25c1.77-1.73,4.36-3.4,5.54-5.65a12,12,0,0,1,2.23-3.28c1-.66,1.45-2.06,2.16-2.94s1.48-1.82,2.28-2.69,1-2.26,1.94-3,1.56-2,2.39-2.94a18.1,18.1,0,0,1,3-2.27,9.1,9.1,0,0,1,1.4-1.07c1.14-.52.4-.25-.64-.29" transform="translate(-21.68 -33.57)"/><path class="cls-2" d="M192.28,122.73a18.24,18.24,0,0,1,4.6,1.45c.86.51,1.61,1,0,.1" transform="translate(-21.68 -33.57)"/><path class="cls-2" d="M193.8,120.29a16.58,16.58,0,0,1,5.26,2.27c1.11.72.93.52-.23-.18" transform="translate(-21.68 -33.57)"/><path class="cls-2" d="M196.33,117.83c1.79,1,3.53,2.15,5.38,3,1.09.52.52.48-.33.07" transform="translate(-21.68 -33.57)"/><path class="cls-2" d="M197.77,115.86a45.94,45.94,0,0,1,5.35,2.79c.79.49.08.53-.52.13" transform="translate(-21.68 -33.57)"/><path class="cls-2" d="M193.2,121.88c1.43-1.7,2.85-3.3,4.15-5,.37-.49,2.61-3.24,1.64-1.84" transform="translate(-21.68 -33.57)"/><path class="cls-2" d="M194.7,124.85c1.85-1.64,4.52-3.82,5.11-6.27a3.82,3.82,0,0,1,1.12-1.93c.57-.51,1.16-.73.31.11" transform="translate(-21.68 -33.57)"/><path class="cls-2" d="M193.21,124.79c2-2.13,3.66-3.55,4.78-6.17a6,6,0,0,1,1.1-1.78c.5-.57,1.22-1.1.25-.09" transform="translate(-21.68 -33.57)"/><path class="cls-2" d="M200.55,125.84c.91.57,1.82,1.11,2.76,1.59.39.2-.09-.19-.26-.25" transform="translate(-21.68 -33.57)"/><path class="cls-2" d="M202.32,123c.06.05,3.63,3.12,3,2.43" transform="translate(-21.68 -33.57)"/><path class="cls-2" d="M204.44,121.88c.79.76,3.21,3,2.35,2.29" transform="translate(-21.68 -33.57)"/><path class="cls-2" d="M199.49,127.05c1.31-1.22,4.17-3.63,4.88-5.5.27-.74,1.54-1.68.35-.67" transform="translate(-21.68 -33.57)"/><path class="cls-2" d="M199.66,127.41c.12.1,2.62,2.79,3.15,1.49a3.63,3.63,0,0,1,1.29-1.9c1.18-.65,1.39-2.68,2.59-3.22,1.36-.62,1.23-1.65,0-2-.5-.15-.11-1.13-.62-1.05s-.73-.1-1.26,0" transform="translate(-21.68 -33.57)"/><path class="cls-2" d="M192.11,122.37c.86,1.64,1,2.23,2.4,2.92.38.18.87-.08,1.15.07a2,2,0,0,0,2.09-.23,6.43,6.43,0,0,1,2.43-2.34,4.65,4.65,0,0,0,1.85-2.12c.41-.85,1.16-1.5,1.59-2.36.19-.37-1.31-1.31-1.33-1.94,0-.18-1.78-.19-2.08-.34a1.45,1.45,0,0,1-.69-.82c-.26-.55-.7.14-1.38.19" transform="translate(-21.68 -33.57)"/><path class="cls-2" d="M162.43,143.15a34.52,34.52,0,0,1,5.62,2.86c1.58,1,3.37,1.46,4.94,2.38a15,15,0,0,1,3.11,3.15,5.46,5.46,0,0,1,.67,1c.45.85,0-1.2-.06-1.43" transform="translate(-21.68 -33.57)"/><path class="cls-2" d="M182,127.7c.56.59,2.84,3.84,2.39,1.4" transform="translate(-21.68 -33.57)"/><path class="cls-2" d="M186.66,353.57a14.76,14.76,0,0,0,1.33,3.17c.32.77.93,1.37,1.26,2.12a16.51,16.51,0,0,0,1.42,2.49,12,12,0,0,0,1.26,1.76c1,1,1.71,2.12,2.68,3.08,1.41,1.39,3.81,3.2,5.87,3.08.66,0,1.4.17,2.05.07a6,6,0,0,1,1.79,0c.92.15,1.91,0,2.79.19.47.1,1,0,1.47,0a11.91,11.91,0,0,0,2,.14,49.46,49.46,0,0,0,6.21-.27c1.13-.15,2.24.22,3.35,0s2.42,0,3.4-.42a11.24,11.24,0,0,0,3.33-2.29,7,7,0,0,0,1.14-1.6c.41-.76.65-1.57,1.06-2.33,1.46-2.63,2.29-5.57,3.46-8.31a17.32,17.32,0,0,1,1.07-1.77,1.79,1.79,0,0,1,.26-.49c.51-.55-.47-.6-.93-.81" transform="translate(-21.68 -33.57)"/><path class="cls-2" d="M186.43,353.69a9.52,9.52,0,0,1,3.4-3.1,26.51,26.51,0,0,0,3.68-2.23,15.28,15.28,0,0,1,6.25-2.23,38.71,38.71,0,0,1,6.92-.91c.73,0,1.44.22,2.17.23s1.74,0,2.61.12c1.32.11,2.69.08,4,.11,1.86,0,3.63,1,5.49,1.15a19.33,19.33,0,0,1,3.46.55,8.84,8.84,0,0,1,1.24.37c.46.23.79.61,1.22.88a32.78,32.78,0,0,0,4.42,1.92,5.55,5.55,0,0,0,1.76.55c.7,0,.66,1.29.66,0" transform="translate(-21.68 -33.57)"/><path class="cls-2" d="M233.61,351.9a7,7,0,0,1-2.68,2.25,9.88,9.88,0,0,1-3.07,1.09c-1,.18-2.08.33-3.09.41-.84.07-1.7,0-2.56.07a35.44,35.44,0,0,0-5.76,1.26,33.74,33.74,0,0,1-8,1,34.7,34.7,0,0,1-9-.67,18.36,18.36,0,0,0-3.06-.06,11.83,11.83,0,0,1-3.26-.72,12.12,12.12,0,0,0-1.31-.49c-.54-.12-1.09-.08-1.63-.21a7,7,0,0,1-2.26-.94,3.35,3.35,0,0,1-.9-.64.75.75,0,0,1-.15-.37c0-.24-.19-.18.12,0" transform="translate(-21.68 -33.57)"/><path class="cls-2" d="M208.84,363.6c.7-.08,1.62-.07,1.34-1-.1-.29-.33-.32-.58-.4a2.15,2.15,0,0,0-2.35,1c-.5,1.39.45,2.89,1.94,2.41a3.09,3.09,0,0,0,1.38-.79c.3-.44-.16-.31-.47-.74" transform="translate(-21.68 -33.57)"/><path class="cls-2" d="M206.71,362.1a6.37,6.37,0,0,1,2.82-.64,1.58,1.58,0,0,1,1.08.23,2.11,2.11,0,0,1,.82,2,9.49,9.49,0,0,1-.47,2c-.16.44-.56.51-1,.59s-1.18-.13-1.47,0-1.26.23-1.5-.09a4,4,0,0,1-.62-.78c-.15-.34-.22-.66-.34-1s-.47-1.74.16-2a1.93,1.93,0,0,1,.95-.26c.12,0,.22.09.34.09s-.34-.12-.52-.12" transform="translate(-21.68 -33.57)"/><path class="cls-2" d="M208.72,357.49c.82-1.05,1.56-2.13,2.4-3.16.45-.54,1-1,1.49-1.54a31.15,31.15,0,0,0,3.88-4.91,20.25,20.25,0,0,1,4-4.91,22.76,22.76,0,0,0,2.26-2.24c.69-.77,1-1.84,1.66-2.65.51-.63,3.83-4.91,4.41-2.31.23,1-.77,1.74-1.4,2.37a24.64,24.64,0,0,0-2,2.41c-.58.78-1.29,1.47-1.86,2.25-.77,1.07-2.17,1.83-2.73,3a26.21,26.21,0,0,1-1.81,2.72,35.61,35.61,0,0,1-2.68,3.53c-.75.93-1.92,1.69-2.45,2.75a5.88,5.88,0,0,1-1.95,1.83,5.08,5.08,0,0,0-1,.73c-.09.12-.26.25-.34.12s-.24.09-.2.17c.12.29-.18-.68-.21-.78" transform="translate(-21.68 -33.57)"/><path class="cls-2" d="M208.26,357.78c.22.11,1.61,1.17,1.61.31,0-.25.34-.68.45-.95s-.7,0-.82.15-.46.36,0,.37a1.45,1.45,0,0,0,.95-.37c.08-.06,1.18.11.2.08h-1.53c-.43,0,.45-.11.57-.11s-.73.49-.87.33a.13.13,0,0,1,.05-.22" transform="translate(-21.68 -33.57)"/><path class="cls-2" d="M189.94,353.52a14.52,14.52,0,0,0,2.13,1c0-.16-.1-.3,0-.46.35-.69.8-.36,1.4-.09s-.24-2.12,1.17-1.14c.73.51.92.43.8-.42-.09-.65.13-.65.69-.58.38.05.65.13.86-.23s.56-.68,1.09-.5.84.6,1.15,0c.13-.25,0-1,.44-.84.27.09.62.43.92.32s.4-.79.66-.68.55.63.89.51c.17-.06.48-.6.15-.53" transform="translate(-21.68 -33.57)"/><path class="cls-2" d="M198.07,352.48c.71.58,3.38,3.68,4.17,1.36.14-.41.16-1.23.56-.55s.81.95,1.34.42c.35-.35.51-.95,1-1.14s.8.7,1.19.2a1,1,0,0,0-.3-1.36c-.15-.08-.19.2-.25.26" transform="translate(-21.68 -33.57)"/><path class="cls-2" d="M204.23,348.91c1.11-.2,2.51-.58,3.36.41a1.4,1.4,0,0,1,.09,1.58.61.61,0,0,1-1,.2c-.26-.31.29-.82.48-1,.68-.64,1.68.39,1.89,1.09s-1.42,1.93-1.23,1.36" transform="translate(-21.68 -33.57)"/><path class="cls-2" d="M223,350.86c.33-.11,2.46-.79,2.05.34-.21.58-1,.89-1.54,1.08-.25.09-.89.07-.47-.29a1.86,1.86,0,0,1,1.34-.42c1.85.15-.73,2.27-1.26,2.57-1,.56-2.44,1.16-3.52.47" transform="translate(-21.68 -33.57)"/><path class="cls-2" d="M211.6,347.47c.44.71,1,1.43,1.34,2.18.13.25-.43-.41-.56-.66,0-.07-.27-.83-.29-.82-.29.06-.35,1.34-.43,1.58-.36,1.12-1.24.69-2.11.61-1.06-.1-1.53.94-2.11,1.6s-.65.69-.33,1.32a1.28,1.28,0,0,1,0,1.47,6.91,6.91,0,0,1-1,.89c-.31.27.14.23.08.06-.16-.44-1.15-.35-1.47-.33-1.2.08-2.42-.22-3.6-.15-.62,0-1.21.39-1.83.48s.2.64.44.8a9.86,9.86,0,0,0-1.24-.78,3.2,3.2,0,0,1-1.8-1.4,5.52,5.52,0,0,0-1.37-1.87.67.67,0,0,1-.14-.77,3.31,3.31,0,0,1,1.37-1.45" transform="translate(-21.68 -33.57)"/><path class="cls-2" d="M211.49,349.77a9,9,0,0,0-4.34-1.67,2.82,2.82,0,0,1-1.62-1c-.34-.41-.15-.3-.55.25-.56.75-1,.08-1.69.28-1.08.3-2,1.31-3.13,1.5-.3.05-.23-.45-.6-.23a5.42,5.42,0,0,1-1.87.83c-.45.07-1.31.36-1.24.91" transform="translate(-21.68 -33.57)"/><path class="cls-2" d="M221.28,349.77c1.39.13,2.8.12,4.19.27a1.67,1.67,0,0,1,1.08.57c.31.28.8,1,1.24,1a3.65,3.65,0,0,0,1.57-.4,3.06,3.06,0,0,1,1.14,0" transform="translate(-21.68 -33.57)"/><path class="cls-2" d="M220.24,351.33c-1.5,1-2.29,2.48-3.9,3.38-.32.18-1.29.52-1.21,1.11.05.42,3.29-.91,3.79-1.15" transform="translate(-21.68 -33.57)"/><path class="cls-2" d="M225.83,352.71c.81.6,1.52,1.47,2.54,1.16.27-.08.85-.11,1-.3" transform="translate(-21.68 -33.57)"/><path class="cls-2" d="M427.13,327.6c-4.21.8-7.26,2-9.93,5.45-1.69,2.17-1.32,5.59-.21,7.89,1.82,3.8,6.31,5.94,10.35,6.13,4.72.21,11.27-1.17,12.24-6.8.51-3-2.37-5.86-3.71-8.33-1.1-2-2.75-4.72-5.06-5.57-.94-.35-3.13-.23-3.82.71a10.15,10.15,0,0,0-.92,1.33c-.18.39,0-1,0-1.36" transform="translate(-21.68 -33.57)"/><path class="cls-2" d="M428.9,338c-1.13.59-3,1-2,2.25a.5.5,0,0,0,.82,0c.24-.24,1.43-1.47.55-1.76-1.79-.6-1.13,3,.14,1.39.69-.85-.27-1.68-1.13-1.17-1,.62-.22,1.69.59.76.6-.7.12-1.24-.54-.58s0,1.53.59.73-.08-1.51-.8-.79.07.74.66.19-.46-.47-.81,0c-.79,1,.46.87.66,0,.29-1.26-1,1.65-.38-.57" transform="translate(-21.68 -33.57)"/><path class="cls-2" d="M424.27,333.73c1.21,1.6,2.45,3.11,3.47,4.71.28.44.05.88.21.87.57,0,1.16-.13,1.77-.13,1.4,0,2.5-.68,3.85-.68,1.63,0,4-.43,1.33-1.77" transform="translate(-21.68 -33.57)"/><path class="cls-2" d="M422.91,327.46c-.26-1.29-1.5-4.41.82-4.08.83.12,1.38,1,1.87,1.52,1.27,1.42,1.14,3.12-.92,3.24-.54,0-1.3,1.1-1.91.34s0-.8.14-1.84c.08-.67-.36-.62-.55-1.28a2.43,2.43,0,0,1,.28-1.44" transform="translate(-21.68 -33.57)"/><path class="cls-2" d="M423.73,326c0,.33-.52,3.26.55,2.78a1.44,1.44,0,0,0,.81-.76c.14-.36,0-.58-.17-.93-.4-.9-1.58-2.31-1.22-.27.22,1.28,1.66,1,1.77-.24.08-.94-1.1-2.19-1.85-1.12-.53.75.42,2.42,1,1.25.28-.59-.39-2.1-1.11-1.36s.37,2.36,1.09,1.71.23-2.59-.54-1.85.35,2,.89,1-.72-2-1.13-.81.78,2.24,1,.77c.2-1.12-1.86-1.72-1.86-.38s1.1,1.11,1.1,0-1.18-.9-.68.08,1.15-.76.59-1.32-1.5.36-.74,1c.52.42,1.23-1.34.36-1.67s-.34,1.26-.08.91c.41-.54-.22-.9.21-.79a3.46,3.46,0,0,1,1.56.63,8,8,0,0,1,1,2.09c0,1.16-1.77,1.78-2.78,1.49-.73-.2-.95.31-.69.14.62-.41.75-1.49.75-1.08" transform="translate(-21.68 -33.57)"/><path class="cls-2" d="M423.59,346.94c-.7,1.49-1.32,3-2.15,4.39a4.54,4.54,0,0,0-.58,1.34c-.11,1,.89-2.37,1.09-2.87" transform="translate(-21.68 -33.57)"/><path class="cls-2" d="M437.35,344.08c1.73,2.18,3.63,3.74,5,6.13a2.85,2.85,0,0,0,.55.6c.61.61-1.14-1.3-1.7-2" transform="translate(-21.68 -33.57)"/><path class="cls-3" d="M323.07,217.05c1.07,4.07,5.24,19.21,6.24,24.74,2.74,15.23-1.57-5.55-1.58,1.18" transform="translate(-21.68 -33.57)"/><path class="cls-3" d="M315.75,223.63c-.36-6.19-1.75-14.79,6.93-13.91a17.32,17.32,0,0,1,11.14,6.09c3.94,5,1.86,12.79-2.39,16.79a16.15,16.15,0,0,1-7.43,4c-5,1.36-1.06-5.61-.25-7.53" transform="translate(-21.68 -33.57)"/><path class="cls-3" d="M338.35,231.21c8.63-.47,16.58-2.16,19.67,7.2,1.79,5.44,4,12.05,2.48,17.78-1.35,5.19-4.26,8.42-9.58,6.22-7.61-3.16-7.6-9.09-3.46-15,1.52-2.18,7.36-6.54,7.37-9.09" transform="translate(-21.68 -33.57)"/><path class="cls-3" d="M353.91,221.1c-.29,2.28-.3,18.34-4.65,18.5a5.43,5.43,0,0,0-2.21.81c-2.74,1.36-1.07.13-.05-1.29,2.32-3.21,7-2,9.35-6.29,2.55-4.63,3.73-6.91.07-10.49-2.56-2.51-1.43-6.79-3.45-.77" transform="translate(-21.68 -33.57)"/><path class="cls-3" d="M366.65,206.52c3.34,7.51,6.39,17.3,11.74,23.83,1.42,1.73,2.21.23,2.19-1.12a18.72,18.72,0,0,0-1-5" transform="translate(-21.68 -33.57)"/><path class="cls-3" d="M357,226.05c5.29-2.08,18.29-4.19,20.5-10.8" transform="translate(-21.68 -33.57)"/><path class="cls-3" d="M373.25,206.77c22.94,40.13.59,11.92,12.25,4.58,7.08-4.45,7.67,16.55,9.63,7.46" transform="translate(-21.68 -33.57)"/><path class="cls-3" d="M393.74,205.39c.83,2.49,3.63,18.92,9.45,15.16,2.6-1.67,5.63-4.87,6.14-8,.53-3.38-1.57-11.95-6.35-11-2.17.42-5.82.52-7.24,2.6s-2.24,6.68-.59,1.76" transform="translate(-21.68 -33.57)"/><path class="cls-3" d="M410,201.41c6.5-4.18,14.15-5.55,15.14,4.29a11.93,11.93,0,0,0,.72,3.93c.65,1.31-.7-3.23-2-4" transform="translate(-21.68 -33.57)"/><path class="cls-3" d="M409.52,205.18c.29,5.14-.44,12.11,2,16.93.08.16.66,1.42.37.73a15,15,0,0,0-1.88-3.77" transform="translate(-21.68 -33.57)"/><path class="cls-3" d="M244.83,251.73c-.9,8.36.67,34.1-13.53,32.5-3-.34-5.64-.83-7.05-3.62s-2.69-5.46-2.84-8.78c-.18-4.07,1.45-6,4.74-7.83,1.15-.65-1.33,2-1.55,2.21-1.45,1.67,3.47-.36,5.35-.78" transform="translate(-21.68 -33.57)"/><path class="cls-3" d="M263.06,255.75c-7.18.67-17.32,2-18.48,11-.62,4.87,6.62,5.46,9.77,7.12,5.4,2.85,9.5,12.15,3.44,16.25-4.22,2.84-7.41,1.33-11.5,1.61s-1.27-1.24,1.2-1.66" transform="translate(-21.68 -33.57)"/><path class="cls-3" d="M302,34.57c-.57,5.77-.92,11.6-1.63,17.35-.07.55-.62,2.74,0,1,.47-1.29.32-2.64,1.07-3.86,1-1.69,5.75-8.11,8-7.46,4.43,1.3-.05,9.52-1.31,11.88-.44.81-1.64,2.57-1,3.48.83,1.22,2.35-3.27,2.41-3.41" transform="translate(-21.68 -33.57)"/><path class="cls-3" d="M319.48,38.36c-.52,2.58-4.94,15.29-.68,17.4,1.19.6,3.85-.53,4.68-1.49s.41-2.55.31-3.72" transform="translate(-21.68 -33.57)"/><path class="cls-3" d="M310.73,38.64c4.67,1.39,9.47,2.31,14.1,3.74a2.8,2.8,0,0,1,2.09,1.47c.92,1.52-1.51.13-1.93-.33" transform="translate(-21.68 -33.57)"/><path class="cls-3" d="M331.83,47.65c-1.07,3.24-2.08,6.51-3.3,9.69-.24.63-.28.86-.41.38a1.55,1.55,0,0,1,0-1.23c1.1-2.61,3.66-6.37,6.08-7.82,2.61-1.58,1.18,3.71.83,4.78s-1.45,4.5-.25,1.31c.72-1.9,2.37-6.62,5.15-5.93,1.68.42,1.29,2.69,1,3.89l-1.65,6.65c-.8,3.25-.37,1.5.22-.88" transform="translate(-21.68 -33.57)"/><path class="cls-3" d="M352.57,40.57c-1.68,6-3.73,12-5.18,18.13-.17.72-.54,3.36.6,3.68s5.35-2.27,4.31-3.16" transform="translate(-21.68 -33.57)"/><path class="cls-3" d="M62.43,286.46q-6,11.3-11.89,22.59c-1.13,2.14-3.37,8.7-3.65,6.29-.37-3.26,1.63-7.84,2.47-10.9,1.2-4.32,3.63-12.95,9.7-12.92,4.57,0,9.72,6.74,10.43,10.93.5,3,2-.38,3.94-1.28" transform="translate(-21.68 -33.57)"/><path class="cls-3" d="M74.71,310.58c2.67,6.19,6.59,16.67,14.68,10.9,3.71-2.64,1.87-7.17-1.8-8.61-9-3.53-20.31,6.32-22.56,14.41s6.61,10.58,12.7,11.37c3.36.45,2.61-2.43,5.5-3.43" transform="translate(-21.68 -33.57)"/><path class="cls-3" d="M97.09,332c-7-2.92-16.23-5.52-20.16,3.4-1.9,4.3,6.59,4.81,9.11,4.69,4.81-.23,15.51-11.36,11.9-8.17-3.16,2.8-6.36,6.1-7.67,10.23-.84,2.67.13,8.56,3.22,4.49" transform="translate(-21.68 -33.57)"/><path class="cls-3" d="M124.24,337.58c-10.13,1-22.14,1.48-25.73,12.87-1.77,5.59,2.38,9.48,7.37,11.13,3.49,1.14,7.05-1.35,9.17-3.88" transform="translate(-21.68 -33.57)"/><path class="cls-3" d="M133.45,339.12c-.56.68-25.52,27.88-13.62,28.09,3.29.06,6.67-1.85,8.94-4" transform="translate(-21.68 -33.57)"/><path class="cls-3" d="M112.31,344.07c4.79,3.31,9.51,6.81,14.77,9.36,1.37.67,3.64,1,4.58,2.36.53.77-.3-1.06-.39-1.33" transform="translate(-21.68 -33.57)"/><path class="cls-3" d="M58.85,126.25c4,6.88,16.79,26.95,11.61,20.9-3.32-3.87-5.83-9-7.94-13.57-2.2-4.8-4.27-13.37,4.13-12.94,7.21.38,10.09,7.74,11.36,13.78.56,2.66.7,4.73,1.9,7.15s1.29-7.06,1.75-9.54" transform="translate(-21.68 -33.57)"/><path class="cls-3" d="M84.83,112.27c.23,1,3.7,24.82,8.75,20.25,2.12-1.93,2.59-6.68,2.86-9.28.86-8.13-2.58-9.13-8.28-10.85-2.73-.82-3.29-.78-4,2-1.54,5.75.88,4.14,4,.94" transform="translate(-21.68 -33.57)"/><path class="cls-3" d="M106.77,105.56c-2.8,4.72-6.38,10.28-4.4,16.07.81,2.4,2.72,1.76,4,.41a12.16,12.16,0,0,0,3.08-8.57c-.22-5.61-3.74-10.41-7.43-14.4-.51-.56-5.17-4.4-4.26-1.1,1.64,5.93,6.2,11.63,9.38,16.78,5.24,8.48,6.85,5.19,9.2-2.78" transform="translate(-21.68 -33.57)"/><path class="cls-3" d="M116.89,107c1.74,1.62,15.47,11.43,15.9,2.73,0-.79-1-1-1.3-1.71a17.65,17.65,0,0,0-3-3.79" transform="translate(-21.68 -33.57)"/><path class="cls-3" d="M118,112.92c-5.44-7.14-13-14.56-5.25-21.62,3.28-3,10.09-.62,9.91,4.35-.08,2.31-.57,8-3.89,8.64-1.76.32-2.57-.83-1-2.44" transform="translate(-21.68 -33.57)"/><path class="cls-3" d="M130.45,83.31c3.51,2.24,28.56,17,15.44,23.51-2,1-3.84-1.34-4.93-2.85-2.45-3.41,4.69-8.25,5-11.86" transform="translate(-21.68 -33.57)"/><path class="cls-3" d="M151,71.41c-2,1.67-13.78,12-4.56,14.06,5.1,1.11,9.92-4,13.79-6.51,6.24-4.08,7.56,3.78,5.84,8.21-1.05,2.72-9.81,11.61-7.42,4.54" transform="translate(-21.68 -33.57)"/><path class="cls-3" d="M220.26,457.65c-7.8,3.93-18,11.09-9.6,20.6,4.05,4.56,11.53,2.69,16.86,2.16,1.49-.15,5.63,1.29,4.5.29-2.43-2.16-4.18-2-4.91-5.67" transform="translate(-21.68 -33.57)"/><path class="cls-3" d="M243.43,455c0,5.75-.05,9.87,5.86,12.11,2.55,1,4.15,1.85,4.82,4.71.77,3.23-1.48,7.91-4.15,9.71a11.87,11.87,0,0,1-11.15,1.5c-3.18-1.31.34-2.85,2-4.34" transform="translate(-21.68 -33.57)"/><path class="cls-3" d="M269.24,448.7c-1,4-5.71,14.74-1.55,18.9,1.67,1.67,4.92.74,7,1.23a9.69,9.69,0,0,1,5.09,3.68c2,2.58.1,6.5-2.22,8.31-3.6,2.82-8.74,1.58-12.93,1.58-2.29,0-.73-.16.4-1.58" transform="translate(-21.68 -33.57)"/><path class="cls-3" d="M260.16,398.75c4.06-1.55,11.58-4,15.51-6.79,4.14-2.93-.2-3.77-2.4-3.07-3.74,1.19-6,5.1-7.26,8.55-3.33,9.07,7.27,19.32,16.18,18.28,8.24-1,9.39-5,10.62-11.17" transform="translate(-21.68 -33.57)"/><path class="cls-3" d="M298.08,394c-.93,1.51-9.69,19.55-12.12,11.06" transform="translate(-21.68 -33.57)"/><path class="cls-3" d="M281.75,394.54c3.7,4.94,12.63,22.62,21.59,22.12,1.3-.07-.42-5.08-.52-5.8" transform="translate(-21.68 -33.57)"/><path class="cls-3" d="M306,394.54c2,12,6.13,48.13,3.8,36.22-1.2-6.14-12.18-39.39-2.51-38,4.18.6,14.88,6.72,12.08,12.32-1.58,3.15-11.34,4.25-7.05,2.11" transform="translate(-21.68 -33.57)"/><path class="cls-3" d="M326,403c1.3,6.78,2.55,13.54,3.69,20.34.19,1.16-.07.2-.41-.44-2.16-4-5.11-11.24-5-15.77.1-4.29,6-7.22,9.1-4.13" transform="translate(-21.68 -33.57)"/><path class="cls-3" d="M342.84,410.86c-.13,5,3.46,22.31,12,17.27,1.22-.73,4.24-2.49,4.33-4.1.05-.86-1.51-1-2.11-1-1.56,0-1.95-1.94-2.63-3.16" transform="translate(-21.68 -33.57)"/><path class="cls-3" d="M340.21,412.45c4.61-4.78,9.8-11.35,13.9-2.84,1.2,2.49.78,5.49-.21,8-1.59,4-7.3,5.62-5.79-.41" transform="translate(-21.68 -33.57)"/><path class="cls-3" d="M368.65,403c3.61,5.77,18.21,21.32,8.63,28.42-3.07,2.26-5.07,2.25-8.51,2.13-4.88-.17-2.3-1.41-.65-5.27" transform="translate(-21.68 -33.57)"/><path class="cls-3" d="M390.77,400.86c-1.09,1.32-15.18,14.93-6.62,16.38,3.16.54,6.06-1.37,9,.56,5.23,3.49,4,8.21-.82,11.18-2.41,1.48-5.09,2.25-7.61,3.48-1.42.69.09-1.31.29-2.11" transform="translate(-21.68 -33.57)"/><path class="cls-3" d="M378.65,395.07c-1.22.89-14.39,8.2-12.52,12.63,2.36,5.6,3.14-1.29,3.57-3.68" transform="translate(-21.68 -33.57)"/><path class="cls-2" d="M55,222.79c2.35-5.53,1.39-10.35,1.39-16.08,0-1.11-.21-4.51,1-5.12a11.88,11.88,0,0,1,5.75-1.6c1.45,0,2.91,0,4.35,0s2.86-.63,4.29-.8c2.67-.33,5.44.13,8.07.13,2.09,0,4.25.27,6.26.27a6.61,6.61,0,0,1,2,.37c.72.64.51,1.65,1.08,2.21" transform="translate(-21.68 -33.57)"/><path class="cls-2" d="M89,202.66a17.93,17.93,0,0,0,.8,5.51c.43,1,.08,2.41.17,3.51.17,2.11-.14,4.17-.14,6.22,0,2.75.14,5.47.14,8.2,0,2.35-2.3,2-4.11,1.63-1.57-.29-3.67.28-5.3.31-3.16,0-6.32.27-9.48.27a18.72,18.72,0,0,1-7-1.68,8.14,8.14,0,0,0-3.48-.39,11.4,11.4,0,0,0-3.72.21,2.46,2.46,0,0,1-2.6-.76c-.53-.95.52-1.36.52-2.14s-.08-2.52.14-.76" transform="translate(-21.68 -33.57)"/><path class="cls-2" d="M70.7,206.24a4.87,4.87,0,0,1,1.1.83c.55.41,1.71.21,2.69.21a4.3,4.3,0,0,0,1.52-.61c.93-.41.37.37.15.81a1.62,1.62,0,0,0,.48,1.73c.74.51,1.47.07,2.19-.29.3-.15.22-.22.31,0a2.49,2.49,0,0,1,.11,1,5.41,5.41,0,0,1-.42,2.43,6.13,6.13,0,0,1-1.75,1.88c-.77.57-1.79,1.57-2.81,1.57-2,0-4.13-.44-5.13-2.38-.42-.83-1.2-1.5-1.2-2.45a7.93,7.93,0,0,1,0-2.48c.31-.91,1.1-1.78.82-1.78C68.9,206.71,70.14,206,70.7,206.24Z" transform="translate(-21.68 -33.57)"/><path class="cls-2" d="M73,205.76c.78-.29,2.55-.89,3-1.83.32-.72-.75-.86-1.31-.86s-1.51,1-1.69,1.55l-.3,1a.79.79,0,0,0,0,.43c0,.11,1.08-.44,1-.6" transform="translate(-21.68 -33.57)"/><path class="cls-4" d="M86.91,221.27l-30.54.67a5.95,5.95,0,0,0,.13,11.89H87a6,6,0,0,0,6-6v-.56A6,6,0,0,0,86.91,221.27Z" transform="translate(-21.68 -33.57)"/><path class="cls-2" d="M63.06,221.78c.46.71.85,1.56,1.38,2.22.26.33.22.26.73.07a7.76,7.76,0,0,1,2.72-.09c.78,0,1.69-.41,2.46-.2s1.92-.22,2.79-.24c1,0,2,.07,3.08.07.63,0,1.24-.36,1.82-.36.34,0,1.3.26,1.32-.35,0-.31.15-.6.15-.9s-.25-.24-.66-.44" transform="translate(-21.68 -33.57)"/><path class="cls-3" d="M212.48,71c.57-.72,1.65-2.06.13-2.29-.34-.06-.66-.26-1-.1a3.22,3.22,0,0,0-2,2.74c0,2,2.16,2.39,3.73,2.37,2.65,0,3.46-2.62,4.39-4.71s2-4.19,3-6.29c1.1-2.37,2.92-4.26,4.07-6.61a22.19,22.19,0,0,1,1.78-2.81,26.83,26.83,0,0,0,2.39-4.45,38.32,38.32,0,0,1,1.93-3.71c.28-.5.18-1.26.72-.73a3.37,3.37,0,0,0,1.64.77,27,27,0,0,0,7.22.72,69.42,69.42,0,0,0,7.6-1c.86-.17.49,0,.09.55-.68.88-1.26,1.81-1.92,2.7A15.32,15.32,0,0,0,244.57,52c-.56,1.46-1.22,2.85-1.75,4.33a28.52,28.52,0,0,1-4.36,7.88c-1.07,1.39-2.39,3.83-4.4,3.73-3.1-.15-1-6.26.47-7.46.8-.64,1.68.05,1.77.92a3.43,3.43,0,0,1-1.42,3.39c-1.22.61-2.15.53-1.21-1,.56-1,.9.09,1.13-.37" transform="translate(-21.68 -33.57)"/><path class="cls-3" d="M446.31,283.77c.56-.72,1.65-2,.13-2.29-.34-.05-.67-.25-1-.1a3.23,3.23,0,0,0-2,2.74c0,2,2.16,2.4,3.73,2.37,2.65,0,3.45-2.62,4.39-4.71s2-4.19,3-6.29c1.11-2.37,2.93-4.26,4.08-6.61a22.93,22.93,0,0,1,1.78-2.81,27.6,27.6,0,0,0,2.39-4.45,39.52,39.52,0,0,1,1.93-3.71c.28-.5.17-1.26.72-.73a3.37,3.37,0,0,0,1.64.77,27,27,0,0,0,7.22.72,67.08,67.08,0,0,0,7.6-1.05c.85-.17.49,0,.09.55-.68.88-1.27,1.81-1.92,2.7a15.88,15.88,0,0,0-1.66,3.88c-.55,1.46-1.21,2.85-1.74,4.33a28.78,28.78,0,0,1-4.36,7.88c-1.08,1.4-2.4,3.83-4.4,3.73-3.1-.15-1-6.26.47-7.45.8-.65,1.67.05,1.77.91.13,1.18-.27,2.81-1.42,3.39s-2.15.54-1.22-1c.57-.95.91.1,1.14-.37" transform="translate(-21.68 -33.57)"/><path class="cls-2" d="M421.31,159.66c-2.6-4.7-2.45-6-1.86-10.78a60.84,60.84,0,0,1,1.12-7.72c1.17-4.59,1.56-10.77-2.14-14.46-7.26-7.27-20.8,3.07-16.7,12.29,1.56,3.51,4.25,6.11,6.2,9.42a28.61,28.61,0,0,0,2.23,4c1,1.19,2.19,2.68,2.19,4.15,0,1.25-.38,2.87.51,4,1.22,1.53.78.74,2.59.74a8.09,8.09,0,0,0,4.07-1.78c.71-.58,1.1,1.08,1.1-.51,0-1.37-.44-.24.46-.24" transform="translate(-21.68 -33.57)"/><path class="cls-2" d="M415.56,164c2.46-.73,9.26-2.37,7.68-.35-1.89,2.45-2.71,1.22-5,1.74-1.19.26-2.35,3.94-1,4,1.88.11,3.13-2.42,5.05-2.42,1.75,0,1.63,2.3.58,3.11-1.38,1.08-3-.08-3.91,1.6-1.47,2.64,2.55,2.21,3.69,1.59s2.24-1.61,3.09-2.17" transform="translate(-21.68 -33.57)"/><path class="cls-2" d="M421.31,158.92c0,.2-.07,1.55-.61,1.55-.29,0-.42-.18-.69,0a8.46,8.46,0,0,0-.9.82c-.26.21-1,.18-1.19.45a1.62,1.62,0,0,1-1.21.71c-.6.07-.82.37-1.46.23-.2-.05-.22-.17-.4-.17s-.41.13-.62-.1-.62-.39-.74-.79-.72-.83.12-.49" transform="translate(-21.68 -33.57)"/><path class="cls-2" d="M410.22,136.17c1,0,1.88.08,2.23,1.17a7,7,0,0,1,.24,2.23c0,.75-.46,1.36-.46,2.06,0,.93.75.78,1.38,1.06a2.47,2.47,0,0,1,1.35,1.09,5.35,5.35,0,0,1,0,2.39c0,.56-.3,1.74.08,2.21.21.25,1.35.64.61.08" transform="translate(-21.68 -33.57)"/><path class="cls-2" d="M401.55,146.57a12.68,12.68,0,0,1-2.58,1.35c-.39.14-.9.4-.81-.2" transform="translate(-21.68 -33.57)"/><path class="cls-2" d="M398.56,138.64c-1.46.35-2.91.75-4.35,1.14-.24.06.31-.54.33-.56" transform="translate(-21.68 -33.57)"/><path class="cls-2" d="M398.16,131.12c-1.51-.22-3-.49-4.52-.76-.69-.12-1,0-.59-.62" transform="translate(-21.68 -33.57)"/><path class="cls-2" d="M406.32,123.14a11.37,11.37,0,0,1-3.31-1,16.49,16.49,0,0,0-1.52-.75c-.63-.25-.64-.17.06-.59" transform="translate(-21.68 -33.57)"/><path class="cls-2" d="M416.71,118a4.7,4.7,0,0,1-.38,3,10.67,10.67,0,0,0-.62,2,.9.9,0,0,1-.22.52,4.75,4.75,0,0,1,.19-.8" transform="translate(-21.68 -33.57)"/><path class="cls-2" d="M425.5,122.85c-.38,1.27-.93,2.49-1.25,3.76-.17.64-.06.68.21,0" transform="translate(-21.68 -33.57)"/><path class="cls-2" d="M429.17,132a23,23,0,0,0-3.38,3.92,5,5,0,0,1-.42.38c-.32.32.23-.41.3-.51" transform="translate(-21.68 -33.57)"/><path class="cls-3" d="M136.73,247.19c1.91,8.6,4.06,17.22,5.33,25.95.7,4.88-.85-2.16-1-3.15a31.69,31.69,0,0,1-.89-6.27c0-4.43-.12-8.91-.45-13.35-.23-3.11-4.05-12.36.78-4.64,4.91,7.87,8.39,16.57,11.72,25.15.47,1.19,1.1,2.31,1.61,3.44.27.62-4.89-4.42-6.88-5.51" transform="translate(-21.68 -33.57)"/><path class="cls-3" d="M133.77,266.27c5.51-2.2,17.66-6.35,21.19-12.53,1.48-2.59,1.2-1.4-3-.62" transform="translate(-21.68 -33.57)"/><path class="cls-3" d="M150.3,237.44a82.12,82.12,0,0,1,8.5,26.73,4.12,4.12,0,0,0,.92,2.43c.12.11-2-3.92-2.64-5" transform="translate(-21.68 -33.57)"/><path class="cls-3" d="M150.3,237c3.3,2,15.41,9.28,7.51,13.92a6.68,6.68,0,0,0-2,1.44c-1.05,1.38-1.17,1.79-.42-.09" transform="translate(-21.68 -33.57)"/><path class="cls-3" d="M161.32,232.77c1.41,9.52,3.82,20,3.82,29.68,0,2.14-.36-1.82-.85-3" transform="translate(-21.68 -33.57)"/><path class="cls-3" d="M171.07,249.73c2.33,6.94,3.53,11-3.29,13-2.33.69.48-2.69,1.08-3.11,2-1.41,4.07-6,1.79-8.24-.91-.91-3.08.24-3.72-.85-.94-1.6,1.17-4.63,2.45-5.42,3.68-2.25,3.22.92,1.69-.09" transform="translate(-21.68 -33.57)"/><path class="cls-3" d="M298.42,121c1.41,7.39,7.2,29,3.83,22.25a5.09,5.09,0,0,1-.7-2.17,29.92,29.92,0,0,0-1.39-9.11c-.87-2.42-.69-4.93-.69-7.5,0-.51-.88-4.57-.79-4.6.88-.29,4.53,4.15,5.19,4.91a70.82,70.82,0,0,1,9.1,12.85c1.23,2.33,1.6,3.17-1.33,3.53" transform="translate(-21.68 -33.57)"/><path class="cls-3" d="M298.08,135.94a81,81,0,0,1,9.73-4.18" transform="translate(-21.68 -33.57)"/><path class="cls-3" d="M307.47,121.33c3.34,5,6.52,10.33,10.41,15,.55.66,1.72,1.86,1.72.31,0-2.11-1.17-4.29-1.7-6.29q-1.27-4.82-2.36-9.66c-.69-3.12-.2-2,1,.38a61.89,61.89,0,0,0,6.68,10.86c1.82,2.32,2,1,2-1,0-3.7-1.8-6.73-3.13-10-1.42-3.54-1.32-8.38-2.94-11.61-.62-1.25-.71,2.72-.89,4.11" transform="translate(-21.68 -33.57)"/><path class="cls-3" d="M326.24,108.82c.09.4,1.39,10.53,3.67,9.38,1-.5,1.25-2,2.28-2.55,1.67-.83,3.48.65,4.14,2.09,1.73,3.81-.27,8.23-3.4,10.55-4.35,3.21-2.86-2.57-2.86-4.18" transform="translate(-21.68 -33.57)"/><path class="cls-3" d="M328.33,108.12c-.63,1.71-1.76,9.65-2.11,6.57a21.79,21.79,0,0,1,.37-5.18c.48-4.34,3.8-.85,2.43-3.13" transform="translate(-21.68 -33.57)"/><path class="cls-3" d="M305.14,336.51c-.12-.21-5.13-8.85-4.7-9.1.6-.35,1.73,0,2.44-.28,2.09-.78,3.77-2.4,5.5-3.74s4.29,9.65,4.84,12c.67,2.82,2.41,6.57-.84,8.19-2.93,1.47-6.79,1-10,1-5.22-.12-8.83-8.69-9.44-12.95-.44-3.11-4.74-13.08-.13-15.07,1.24-.54,3.34-.17,4.68-.17,1.92,0,3.59-1.14,5.55-1.14,3.1,0,4,3.87,1.33-.38" transform="translate(-21.68 -33.57)"/><path class="cls-3" d="M313.9,317.84c.54,2,2.28,12.92,6.86,10.12a5.55,5.55,0,0,0,1.82-2.75c.84-2.47,1-4.53-.87-6.41-1.41-1.42-4.15-4.31-6.2-4.38-5.1-.2-.6,5.51-1.23,4.57" transform="translate(-21.68 -33.57)"/><path class="cls-3" d="M314.66,300.32c3.76,5.95,9.44,12.49,11.73,19.34a7.81,7.81,0,0,0,.84,2.29c.82,1.23,1.21,3,2,1.14,1.13-2.72,3.7-5.14,5.72-7.24,2.49-2.58,2.83-1.82-1.61-1.82" transform="translate(-21.68 -33.57)"/><path class="cls-3" d="M341,298.42c-.48,1.06-7.65,15.26-.72,12,1.38-.64,2.78-1.64,2.6-3.28s-1.5-2.82-2.18-4.19c-.39-.78-1.93-4.5-1.4-3.43,1.59,3.18,3.73,8.85,6.1,11.21,2.76,2.76,4.41-.13,1.69-1.69" transform="translate(-21.68 -33.57)"/><path class="cls-3" d="M345.14,299.94c10.6,16.82-2.82-2.05.27-5.35s6.52,2.94,7.64,4.89c1.95,3.39,3.87,12.19.85,3.13" transform="translate(-21.68 -33.57)"/><path class="cls-3" d="M358.47,285.47c-.18.63-5.87,16.64-1.61,15.15a9,9,0,0,0,4.59-3.71,8,8,0,0,0,.83-6.58,32,32,0,0,0-1.91-4.27c-1.8-3.16,3.06,6.59,4.51,9.92,2.13,4.88,7.25,22-4.83,18.58-5.26-1.48-.3-9.67-.82-9.67" transform="translate(-21.68 -33.57)"/><path class="cls-2" d="M208.55,206.76a9,9,0,0,0,4.84-2.54,6,6,0,0,0,.86-2.06,4.86,4.86,0,0,0-.38-3c-.24-.71,1.06-1.11,1.52-1.14.8,0,1.41.46,2.18.5a3.67,3.67,0,0,1,2.54,1.07c.43.49,1,.6,1.49,1a7.64,7.64,0,0,1,1.14,1.62,12.36,12.36,0,0,1,1.5,4.92,7.68,7.68,0,0,1,.08,2.53,12.55,12.55,0,0,1-.38,2.87,4.18,4.18,0,0,1-1.31,1.9c-.62.4-1.21.54-1.37,1.36-.33,1.71.53,3.38.2,5.11-.3,1.53-2.32,1.77-3.58,2-.86.17-2.43.44-3.26,0a13,13,0,0,1-3.83-3.24,8,8,0,0,1-1.54-4.45,45.31,45.31,0,0,1-.11-4.81c0-1,.33-2.09.43-3.13.08-.84.35-.91-.09.18" transform="translate(-21.68 -33.57)"/><path class="cls-2" d="M219.52,199c.64-1.65,1.34-3.3,1.83-5,.22-.77.28-1.57.55-2.32a13.81,13.81,0,0,0,.61-2.75c.1-.66.15-1.81.75-2.22.43-.29.68-1,1.14-1.34a8.38,8.38,0,0,0,1.87-1.5,3.08,3.08,0,0,0,.51-2.56c-.19-.39-.16-.81-.35-1.19a11.81,11.81,0,0,1-.67-1.44c-.16-.47-.68-1.42-.08-1.75,1.48-.82,1.58.47,2,1.65.24.61.27,1.35.49,2,.15.44.42.12.62.37s.32.84.55,1.25c.35.61-.06,1.83-.23,2.43a22.29,22.29,0,0,1-1.15,3.14c-1.24,2.72-3.27,5-4.65,7.64a12.46,12.46,0,0,0-1.21,3.12,8.27,8.27,0,0,0-.58,1.89c0,.61-.15.92.17,0" transform="translate(-21.68 -33.57)"/><path class="cls-2" d="M226.15,178.53a10.92,10.92,0,0,0-3.23.72c-.13.06.07-.11.17-.12,1.3-.15,2.71-1.31,3.89-1.87.88-.42,2.08-1.36,3.08-1.36.29,0-1,.81-1.1.93" transform="translate(-21.68 -33.57)"/><path class="cls-2" d="M225.05,180.4c1.2-.7,3.3-1.46,4.18-2.63.09-.12.15-.27.28-.34.43-.25-.34,0-.47.08" transform="translate(-21.68 -33.57)"/><path class="cls-2" d="M225.9,181.51c1.44-.55,4.09-1,4.88-2.64.12-.23-.14-.17-.29-.17" transform="translate(-21.68 -33.57)"/><path class="cls-2" d="M227.43,181.34c-.1,1.95-.08,3.93-1.19,5.6a6,6,0,0,0-1.11,2.31,10.51,10.51,0,0,1-.89,2.8c-.46.92-1,1.67-1.45,2.55-.24.46-.81.9-.7,1.45a1.47,1.47,0,0,1-.17.79,8.89,8.89,0,0,1-1.23,2.1c-.32.45-.31,1.26.1.43" transform="translate(-21.68 -33.57)"/><path class="cls-2" d="M220.54,197.07a15.47,15.47,0,0,0,2.72.68s-.67-.82-.77-.93" transform="translate(-21.68 -33.57)"/><path class="cls-2" d="M221.05,193.59c1.08.46,2.17.92,3.25,1.4.25.11.24.13.15,0a5.78,5.78,0,0,1-.51-.6" transform="translate(-21.68 -33.57)"/><path class="cls-2" d="M222.07,191.29c1.31.41,2.61.84,3.94,1.2.14,0,.35.12.21,0-.29-.3-.62-.56-.92-.83" transform="translate(-21.68 -33.57)"/><path class="cls-2" d="M222.75,188.4c1.49.73,3,1.51,4.5,2.16.25.1.33.18.28,0a7.19,7.19,0,0,0-.27-.78" transform="translate(-21.68 -33.57)"/><path class="cls-2" d="M224.62,186.36c.14.06,4.25,2.29,3.91,1.44" transform="translate(-21.68 -33.57)"/><path class="cls-2" d="M225.47,185c1.24.29,2.5.55,3.74.76" transform="translate(-21.68 -33.57)"/><path class="cls-2" d="M226.83,183.64l1.7.08" transform="translate(-21.68 -33.57)"/><path class="cls-2" d="M215.61,209.15c-.59.23-4.23,1.14-4.26,2.14a9.32,9.32,0,0,0,.05,1.18,3.27,3.27,0,0,0,2,2.42,5.2,5.2,0,0,0,4.16.34,2.46,2.46,0,0,0,1.7-3.19c-.11-.27.28-.33,0-.64s-.41-.12-.81,0" transform="translate(-21.68 -33.57)"/><path class="cls-2" d="M213.82,212.29a34.86,34.86,0,0,0,1.92-5.23,3.93,3.93,0,0,1,.48-1.3,13.65,13.65,0,0,0,1.34-2.87c.31-.95.33-1.89.73-2.82.14-.34,1-1.33.63-.87" transform="translate(-21.68 -33.57)"/><path class="cls-2" d="M220.54,200.05c-.32,2-.79,3.85-1.13,5.8a17.8,17.8,0,0,0-.49,3.12,9.86,9.86,0,0,1,.11,2.3c-.22.94-.41.48-.79-.17" transform="translate(-21.68 -33.57)"/><path class="cls-2" d="M219.69,200.05c-.59,1.23-1.87,3.25-1.87,4.8,0,.89.06,1.82,0,2.72a9.88,9.88,0,0,1-1.4,3.36,4.65,4.65,0,0,0-.48.87c-.13.41,0,.44-.32,0" transform="translate(-21.68 -33.57)"/><path class="cls-2" d="M213.57,210.51c1.44,1,4,3.15,5.78,1.32a5,5,0,0,0,.83-1.26c.21-.49-.47-.07-.92,0" transform="translate(-21.68 -33.57)"/><path class="cls-2" d="M215.27,209c.82,0,2.49.19,3.29-.22,0,0-.06,0-.08,0s-.24,0-.32-.07" transform="translate(-21.68 -33.57)"/><path class="cls-2" d="M216.2,205.83c.61.16,2.8,1.09,2.89.08" transform="translate(-21.68 -33.57)"/><path class="cls-2" d="M217.22,203.28c.75.49,3.8,2.76,3.32.34" transform="translate(-21.68 -33.57)"/><path class="cls-2" d="M218.07,202.09l2.3.59" transform="translate(-21.68 -33.57)"/><path class="cls-2" d="M221.81,202.09c.95.89,2.84,3,2.9,4.52,0,1.28,0,2.51,0,3.79,0,.94.17,1.94.08,2.83-.12,1.17-1.92,1.18-1.49,2.55.15.46,0,.73.42,1.06a2.12,2.12,0,0,1,.73,1.06,2.84,2.84,0,0,1-1,2.73,10.3,10.3,0,0,1-1.57,1.65,2.75,2.75,0,0,1-1.11.05,3.8,3.8,0,0,0-1.1.29c-.37.17-.85-.13-1.32,0" transform="translate(-21.68 -33.57)"/><path class="cls-2" d="M208.55,207a13,13,0,0,0,1.17,3.06,1.54,1.54,0,0,1,.1,1.23c-.12.55-.52,1.83-.21,2.39a5.26,5.26,0,0,1,.47,2.72c0,.91,1.43,1.31,1.9,1.78.7.7.4,1.59,1.55,1.9a2.33,2.33,0,0,1,.84.23c.15.12.32.43.52.46a6.18,6.18,0,0,1,1.31.16,9.1,9.1,0,0,1,.81.48c.31.17.73,0,1.06.15,1.15.57.64,0-.17-.61" transform="translate(-21.68 -33.57)"/><path class="cls-2" d="M123.93,164.31c-2.28,2.91-12,14.54-3.72,17.18,2.58.81,5.94-1.07,8.72-.79,3.93.38,6.14,3.72,7.11,7.19,1.11,4-5,11.11-2.08,13.26,5.06,3.68,12.35-2.55,16.53,2.4,2.37,2.8-.12,6.87,1.35.26" transform="translate(-21.68 -33.57)"/><path class="cls-2" d="M238,119c2.19,2.9,7.4,9.44,9.36,13.17,1.67,3.17-.43,3-2.22,1.78-2.14-1.51-1.84-4.71-1.23-6.93,2.06-7.5,15.41-14.39,16.91-2.87.53,4-3.09,10.85-8,9.24-6.51-2.12-6.1-12-1.17-15.73s13.28.56,13.28,6.72c0,6.85-8.14,9-11.3,2.93-2.86-5.49,2.22-11.23,7.67-12,2-.31,7.18,2,3.57,3.21" transform="translate(-21.68 -33.57)"/><path class="cls-2" d="M348.11,171.16c-3.41,3.39-14.19,11.29-5.12,14.36,5.27,1.79,10.16-1.14,13.43-5.15,3.6-4.41,4.22-11.4-1.52-14.27-4.47-2.24-8.32-5.82-12.06-.21" transform="translate(-21.68 -33.57)"/><path class="cls-2" d="M464.5,217.5c-6.52,3.88-16.4,8.57-6.32,12.23,1.55.56,2.55.2,3.92-.76,5-3.54,5.33-5,5-10.42-.2-3.61-5.49-2.78-7.9-1.57-3.56,1.78-6.05,5.34-7.49,9-1.94,4.85,8.09,4.56,9.48-1.29.87-3.66-3.32-8.87-6.2-4.39-3.82,5.94,2,11.24,5.67,5,3.52-5.95-4.7-8.41-6.9-1.47-2.9,9.12,14.35-.78,8.07-3.92-3.74-1.87-10.06,10-3.16,7,8.38-3.59-1-8.88-1-.49,0,6.8,11.25-3.08,3.92-5.74-1.68-.61-3.33,4.75-2.14,5.94,2.08,2.08,5.69-3.3,5.5-5.24-.79-8.31-8.92,12.82.76,3.13,2.22-2.21,2.13-6.21-1.55-3.86-2.16,1.39-3.53,7.28.56,5.91,3.93-1.31,3.93-8.59-.29-6.9-2.58,1-3.52,4.68-6.29,4.12" transform="translate(-21.68 -33.57)"/><path class="cls-2" d="M407.62,271.75c-1.09,1.2-18.44,22.61-9.72,11.7,2-2.5,3.83-4.95,6.56-6.7,1.68-1.08,3.3-1.75,4.74-3.19s-.66-1.47-1,1.81c-.31,2.87-.07,15.36-.55,15.33-3.25-.19-5.39-3.39-8.4-4.44-1.61-.57-6.39.25-5.06-.82,3.26-2.61,13.25-10.09,10.3-7.14-2.24,2.24-6.84,10.65-5.27,7.9,1.12-2,4.14-8.32,3.69-7.26-.93,2.2-2.54,5.95-2.4,8.37s4.69-3.35,5-3.92c2.12-4.23-2.25,5.28-.7,3,1.4-2,6.14-7.22,2.75-2.13-.74,1.11,3.52-4,2.75-2.93-.22.32-2.15,3.56-1,2.43,4-4-1.91.16-2.66-1" transform="translate(-21.68 -33.57)"/><path class="cls-2" d="M372.33,359.17c1.85-2.63,12.38-14.21,3.72-14.72-1.46-.09-4.48-.56-5.71.44-2.9,2.38-1.64,8.79,2.29,9.51,5.21,1,10.09-6.18,4.44-8.92-5.89-2.87-19.82,8.65-13.81,13.4,11.84,9.34,22.54-17.81,7.23-13.9-13.88,3.54-1.65,17.84,4.65,8.63,6.75-9.87-14.06-9.95-10.38,1.08,1.81,5.44,7.76,2.82,8.83-1.58,1.57-6.44-4.84-3.78-4.94.68-.11,4.77,7.24-3.87,2.84-3.49-3.19.28-3.51,4.65-6,4.65" transform="translate(-21.68 -33.57)"/><path class="cls-2" d="M162.73,309.66c1.06,4.83,3.16,19.43,3.16,14.49,0-3.42-2.6-6.6-3.13-10-.18-1.19.2-4.72-.82-5.53-.69-.55,5.87,4.55,7.61,5.53,3.18,1.79,5.46,5.13,8.22,1.58,1.33-1.7,5.23-1.94,5.76-2.37,3.9-3.12,3.55-7.77,4.45-11.85.32-1.45-.5,5-.5,6.85a31.86,31.86,0,0,0,1.09,7.87c.92,3.21.55-5.86-.33-7.61-1.41-2.84-1.28-5.35-1.28-8.43,0-1.21,8.8,14,7.25,15.16-.64.49-9.26-1.89-11.88-1a44.07,44.07,0,0,0-6.43,2.63c-.59.29-1.55,1.35-1.17,1.05,1.33-1.07,5.42-4,3.8-3.45-2.23.75-4.42,2.9-6.44,4.1-3.79,2.25-5,1.93-6.61,5.79-.23.56,2.61.48,3.16.64,4,1.14,6.49-2,10-3.39,4.54-1.84,9.75-5.63,14.63-6.2,3.68-.44-1.92-1.73-2.11-2.11" transform="translate(-21.68 -33.57)"/><path class="cls-2" d="M363.91,106.91c9.92-3.18,26-6.84,34.87-14.1,1.61-1.32,4.11-2.59,3.54-5.12-2.12-9.54-6.73-11.78-15.83-10.77-5,.56-9.88,5.21-14.57,7.11a88.29,88.29,0,0,0-14,7.31c-4.45,2.84-1.87,4.24-1.87,9.13,0,2.69,1.6,6.44,4.47,6.44,1.31,0,5.06-1,1.35-1-2.91,0-7.43.44-10-.94-2-1,1.93-3.13,2.86-3.25,3.33-.44-3.81,2.81-4.53,3-1.49.48,5.35-4.7,1.55-3.48-4.12,1.33,2-2.22,3.27-2.87,1.45-.72.19.43.53-.17.55-1,3.71-4.47.85-1.61-1,1,2.16-1.64,3.22-2.49,2-1.6-.54.83-1,1.23-2.25,1.84-2.78.36-4.62,1.17-.76.34-2.63,1.47-2.63.15,0-2.29,8.06-3.33,9.54-3.4,9-.41,15.33-4.38,23.64-6.46a68.12,68.12,0,0,0,12.11-4.21c2.78-1.32,8.34-5.44,11.29-4.6,1.16.33-16.72,10.74-11.58,7.35,4.25-2.81,9.12-4.78,2.75.49-5.11,4.23,3.87-.69,4.59-.41,1.29.52-7.93,5.78-.91,2.55,2.69-1.24,4.92-1.3,4.92-4.21,0-4,1.08-8.65-3.95-6.82-5.81,2.11-10.47,6.62-16.47,8.4-4.14,1.22-8.18,2.76-12.23,4.21-4.71,1.68-13.24,3.56-16.59,7.66-1.79,2.19-5,10.71,1.61,7,6-3.39,7-10.23,10.24-15.63,1.61-2.68-2.81,5.66-3.46,8.72-.74,3.52,2.57,7.57,6.35,6.91,4.16-.73,8.53-6.46,10-10,7.13-16.77-5.8-.51-2.14,3.16,3.89,3.89,9.82-6.41,10.59-9,.94-3.06,1.49-6.84,2.61-9.75,1.45-3.77-7.82.48-8.69.91A32.09,32.09,0,0,0,374,89.41c-1.19,1.53-5.95,8.7-2.69,10.33,4.37,2.19,9.74-4.61,9.86-8.13.41-12-9.42-5.83-15.36-1.15-3.67,2.9-.48,8.68.17,8" transform="translate(-21.68 -33.57)"/><path class="cls-2" d="M230.67,392.35c-.23.18-8.9,7.65-8.9,5.53a5.34,5.34,0,0,1,1.82-3.4c1.69-1.61,8.36-2.85,6.76,1.09-1.08,2.63-5.49,6.52-6.73,1.54-.52-2.06,3-6.2,5.18-4.44,2.37,1.94-2.73,4.41-4.34,3.54-2.86-1.56.58-7.12,3.34-6s-1.08,4.49-2.4,5.15c-3.07,1.54-2.64-.95-4.21-2.52" transform="translate(-21.68 -33.57)"/><path class="cls-2" d="M88,391.82c3,5,8.82,10.19,2.92,14.75-1.52,1.17-10.48,5.86-9.94.41.65-6.65,10.56-6.8,11.17-12.76s-13.47-3.67-16.67-7.67c-2-2.5-3.63-8-3.16-11.23.18-1.24,3.33-3.66,3-1.41-.59,4.12-13.87,14.68-6,18.14,5.28,2.33,6.65-3.56,10.54-5,8-2.91-4,18.7-4,13.17" transform="translate(-21.68 -33.57)"/><path class="cls-2" d="M346,460.28c-2.44,5.77-7.37,23.56-7.37,17.29a7.21,7.21,0,0,1,.53-2.66,50.89,50.89,0,0,1,6.08-12.05c1.46-2.06,3.19-8.09,5.27-3.51,1,2.13,3.74,8.07,2.57,10.41-1.47,2.94-6,4.63-9.07,4.74-.79,0-9.1,1.12-6.4-1.34,3.16-2.9,6.22-11.72,11-12.32a6.75,6.75,0,0,1,2.92.76c1.14.63-.25,1.78-.79,2.66-.65,1.06-5.78,8.22-5.79,7.9-.15-4.8,4.78-11.77,7.43-15.39.95-1.3-4.11,7.52-5.27,9.51-.89,1.54.28,4.81-3.74,4" transform="translate(-21.68 -33.57)"/><path class="cls-2" d="M182.74,36.86c-2.35,9.2-4.44,18-5.29,27.33-.09.94-.68,1.55-.09,2.28.88,1.1,3.2-5.88,4.1-7.75,2.83-5.93,6-8.26,6-15.54v-3.1c0,3.39.65,6.73.41,10.13-.17,2.56-2.63,9.48-.82,7.66,2.81-2.8.56-16.87-3.83-17.23-6-.5-8.88,12.49-9.57,16.53-.79,4.7,2.52,6.67,6.18,3,5-5,6.07-15.25,1.78-21.09-5.89-8-9.75,6.46-10.24,10-1.1,8,3.38,10.6,8.69,4.89,1.95-2.1,5.89-5.73,5.06-9-1.1-4.33-7.5-.13-8.77,1.75-1.82,2.67-1.79,9.31,1.14,11.21,2.73,1.77,5.39-5.56,5.09-7.4-1.3-7.8-16,4.58-8.69,9,6.36,3.86,10.57-13.4,2.75-11.27-2.18.6-7.36,6.47-2.87,6.47" transform="translate(-21.68 -33.57)"/><path class="cls-2" d="M43.18,187c-2.36,6.7-4.07,11-10.06,14.74-1.51,1-3.49,2.62-3.8,4.51-.66,4,5.71,8.49,9.33,7.28,7.63-2.54-3.92-10.09-5.15-12.28-2.15-3.82,5.61-10.68,9.19-8.67,2.78,1.57,4,7,2.37,9.69-2.4,3.88-7.56,4-11.59,3.42-3.21-.48-9.64.18-7.75,4.95,2.36,6,13.51,2.84,15.18-2.23s-7.18-6.78-5.29-11.41c1.3-3.17,5.4-7.14,9-7.14,4.36,0,0,8.15-.65,9.42-2.86,5.64-7.25,6.21-12.81,7.73-10.46,2.87.81,3.27,1.46,0" transform="translate(-21.68 -33.57)"/><path class="cls-2" d="M30.55,259.11c-1.12,4.21-4.43,11.39-4.1,16,.15,2.15.74-4.24,1-6.38.49-4.07,1-8.67,3.22-12.23.39-.63,9.32,10.52,10.13,12.35,2.15,4.9-.55,4-3.93,5.56-1.87.89-14.68,5.41-14.68,4.21s2.41-3.79,3-4.86a44,44,0,0,0,4.45-11.17c1.61-7.9.41,8.36.41,9.59,0,.76.29,5.15-1.46,5.15-2.2,0,1.48-4.13,2.22-6.2s3.9-8.66,3.13-11c-1.09-3.28-1.64,6.76-1.76,10.21-.08,2.34-1.21,6.25.62,2.46.58-1.21,2.46-6.16,2.43-5.79-.27,3-1.5,6.18-1.5,9.24s1.66-6.95,4.51-8.25c.71-.32-.29,5.63-.29,6.5,0,1.58,1.52-6.1,1.52-4.51,0,.44-.63,3.11-1.11,2.28-2-3.4-3.45-5.5-7.49-6.73-1.84-.56-7.69-.17-5.77-.17,1.27,0,3.25-4.4,4.66-3.25,1.86,1.52-.7,6.39-1.29,8.05-1,2.71-1.58-1.11.82-.82s-.05,9.52,1.34,7.43c.65-1,2.61-5.77,2.55-5.21-1.28,10.84-1-3,1.08.18" transform="translate(-21.68 -33.57)"/><path class="cls-2" d="M291.23,115.86c6.7-.33,13.17,2.15,12.11-5.79-.52-3.94-2.73-10.37-1.58-14.22,1.22-4.09,8.72-13.32,2.32-16.21-5.37-2.42-12.38,4.43-13.38,9.07-.41,1.93-.32,8,2.87,8,2.41,0,3.95-2.37,6.06-.27,2.75,2.76,3.24,5.27,1.29,8.72-4.7,8.3-23.26-1-13.26-11,1.37-1.37,6.79-7.66,9.36-5.85,3.54,2.48,3.06,9,1.23,12.17s-8.51,6.57-11.14,2.46c-1.3-2-.68-3.4,1.49-3.4" transform="translate(-21.68 -33.57)"/><path class="cls-2" d="M347.34,165.15c.61-.25,19.88-9.77,19-4.54a25.79,25.79,0,0,0,.23,8.22c.15,1.07,2.76,9.42.14,9.42-4.87,0-9.63-2.45-14.51-1.52-2,.39-6.05,1.77-6.2-1.46-.11-2.43-2.13-13.32,2.66-12.26,4,.88,4.12-2.26,1.32,4.71-.4,1-3,8.42-2.58,8.07,4.39-3.44,6.79-10,10.8-14.07,2.51-2.5-1.79,7.55-2.31,8.81-2.67,6.42,4.15-5.44,4.92-6.61,3.36-5.15.81,4.07.29,5.59-1.56,4.56,3.23-4,5.15-5.1,6.35-3.75.35,9.22-1,6.53" transform="translate(-21.68 -33.57)"/><path class="cls-2" d="M295.45,264.37c.3,7.74.16,12,6.72,7.08,1.87-1.38,1.07,1.9.62,2.69-.76,1.34-5.24,8.05-.73,5.48,1.14-.66,4.21-1.95,4.21.55,0,.4-1.38,5.24,0,3.89,2.21-2.21,2.25-10.54,2.37-13.78,0-.7.34-1.53-.29-1.17-3.23,1.85-4.76,11.5-6.44,15.28-1.45,3.25-5.62-.59-8-2.11-4.54-2.89-1.68-.84-1.57-1" transform="translate(-21.68 -33.57)"/><path class="cls-2" d="M259.11,333.36c0,.25-.64,15.37-.53,8,0-2.24,0-4.49,0-6.73.09-6.37,1.22-3.41,4-.79,1.26,1.2,5.9,3.8,5.15,6.23-.22.72-7.66,2-8.84,2.46-.88.33-6.08,3.61-6.08,3.45,0-3.91,1.37-8.15,1.84-12.05,1-8.27,6.71,13.87,7.08,8.28.09-1.32,0-9.15,0-7.2,0,1.45,1.05,9.21,1.05,4.13V335.7c0-.54.3,2.06.5,1.55.73-1.82-.5-5.49-.5-1,0,5-1.4,1.4-4.47,1.4-2.63,0-4.13,9.63-2.78,7.38,1.18-2-1.15-10-.12-5.88.54,2.16,1.84-.23,2.63-1" transform="translate(-21.68 -33.57)"/><path class="cls-5" d="M311.73,220.16a22.53,22.53,0,0,1-6.89-4c-16-13.65-9.15-34.24.54-45s69-6.44,41,43.23l-.36.22c-3.13,10-.49,18.49,2.68,28.74,1.29,4.18,2.67,8.64,3.78,13.6l-29.68-2.13A54.66,54.66,0,0,1,311.73,220.16Z" transform="translate(-21.68 -33.57)"/><path d="M304.84,216.15l-.45.54Zm6.89,4,.24-.66a.7.7,0,0,1,.46.66Zm-6.35-49,.52.47Zm41,43.23.61.35a.75.75,0,0,1-.25.25Zm-.36.22-.67-.21a.71.71,0,0,1,.32-.4Zm2.68,28.74-.67.2Zm3.78,13.6.68-.16a.7.7,0,0,1-.15.61.69.69,0,0,1-.58.24Zm-29.68-2.13,0,.7a.71.71,0,0,1-.52-.29Zm-17.55-39.22A21.87,21.87,0,0,0,312,219.5l-.48,1.31a23.24,23.24,0,0,1-7.1-4.12Zm.61-44a39.22,39.22,0,0,0-9.74,21,25.25,25.25,0,0,0,9.13,23l-.9,1.07a26.65,26.65,0,0,1-9.62-24.2,40.64,40.64,0,0,1,10.1-21.78Zm39.91,42.42c6.95-12.34,8.41-21.73,6.69-28.71s-6.63-11.67-12.77-14.58a42.7,42.7,0,0,0-19.87-3.65,33.45,33.45,0,0,0-8.56,1.46,12.54,12.54,0,0,0-5.4,3.06l-1-.94a13.86,13.86,0,0,1,6-3.45,35.42,35.42,0,0,1,8.93-1.53,44.17,44.17,0,0,1,20.54,3.79c6.41,3,11.69,8,13.53,15.51s.21,17.22-6.83,29.73Zm-.1,0,.35-.21.72,1.2-.37.22Zm2.36,29.55c-3.16-10.21-5.88-19-2.68-29.15l1.34.42c-3.06,9.71-.5,18,2.67,28.32Zm3.76,13.55c-1.1-4.93-2.47-9.37-3.76-13.55l1.33-.41c1.29,4.18,2.68,8.66,3.8,13.65Zm-28.94-3,29.68,2.13-.1,1.39-29.68-2.12Zm-10.46-34a54,54,0,0,0,11,34.27l-1.13.82A55.32,55.32,0,0,1,311,220.15Z" transform="translate(-21.68 -33.57)"/><path class="cls-6" d="M351.74,184.41c4.65,6.47-.35,22.42-4,26.42,30.58-17,11.22-55.26,1.78-48.28-1.54-14.15-17.78-19.15-28.85-7.18C292.87,133,291.41,171.16,301.21,177s21.68.27,27.85,3.27,10,21.14,12,11.07S345.94,176.34,351.74,184.41Z" transform="translate(-21.68 -33.57)"/><path class="cls-7" d="M379.19,466.28l-43.05-3.12L346.5,347.28s-49.94-118.36-7.07-118.36c60.58,0,80.84,93.34,80.09,118.36S379.19,466.28,379.19,466.28Z" transform="translate(-21.68 -33.57)"/><path class="cls-8" d="M335.82,468.17l.6-5.23,43.35,1.74-.95,8.41a21.64,21.64,0,1,1-43-4.92Z" transform="translate(-21.68 -33.57)"/><path class="cls-7" d="M273.33,382.9c-28-27.15,6.8-117.09,12.47-127.79,8.27-15.25,33.07-41.79,66.17-25.9,50.06,24,27.19,142.86,18.19,184.06Z" transform="translate(-21.68 -33.57)"/><path class="cls-6" d="M55.27,477.15l-4.51-40.79s104.77-33.95,191.12-46.69l118.56,10.24c17.81,42.08,9,119.42-123.06,83.87Z" transform="translate(-21.68 -33.57)"/><path class="cls-9" d="M182.23,405.68l-18.62,57.9-39.05-1.91-17.82-108a29.38,29.38,0,0,1,29-34.17h24.17l1.67-2.6,8.11,2.6A29.17,29.17,0,0,1,186.78,325L350.91,377.8a41.94,41.94,0,0,1,23.54,60.77l-25.11,43.82a41.94,41.94,0,0,1-63.5,11.13Z" transform="translate(-21.68 -33.57)"/><path d="M182.23,405.68l.45-.53-.8-.68-.32,1Zm-18.62,57.9,0,.7.54,0,.16-.51Zm-39.05-1.91-.69.11.09.56.56,0Zm-17.82-108,.69-.12Zm29-34.17v0Zm24.17,0v.7h.38l.21-.32Zm1.67-2.6.21-.67-.51-.17-.29.46Zm8.11,2.6-.22.67.11,0h.11ZM186.78,325l-.41.57.09.06.1,0ZM350.91,377.8l.21-.66Zm23.54,60.77.6.35Zm-25.11,43.82-.61-.35Zm-63.5,11.13.45-.53Zm-104.28-88L163,463.36l1.33.43L182.9,405.9Zm-17.91,57.41L124.59,461l-.07,1.4,39.06,1.91Zm-38.4-1.32-17.82-108-1.38.23,17.82,108Zm-17.82-108a28.68,28.68,0,0,1,28.29-33.35v-1.39a30.07,30.07,0,0,0-29.67,35Zm28.29-33.35h24.17v-1.39H135.72Zm24.76-.32,1.67-2.61-1.18-.75-1.67,2.61Zm.86-2.32,8.11,2.61.43-1.33-8.11-2.61Zm8.33,2.64a28.43,28.43,0,0,1,16.7,5.38l.82-1.14a29.8,29.8,0,0,0-17.52-5.63Zm16.89,5.47,164.13,52.8.43-1.33L187,324.34Zm164.13,52.8a41.24,41.24,0,0,1,23.15,59.76l1.21.69a42.63,42.63,0,0,0-23.93-61.78Zm23.15,59.76L348.73,482l1.22.69,25.1-43.81ZM348.73,482A41.23,41.23,0,0,1,286.29,493l-.9,1.07A42.63,42.63,0,0,0,350,482.73ZM286.29,493,182.68,405.15l-.9,1.07,103.61,87.84Z" transform="translate(-21.68 -33.57)"/><path class="cls-10" d="M124.11,461.23l39.94,2.36,3.09,33.53s-35-1-56.29-7.66l14.29-7Z" transform="translate(-21.68 -33.57)"/><rect class="cls-7" x="122.99" y="212.79" width="18.33" height="97.77" rx="2.01" transform="matrix(0.97, -0.26, 0.26, 0.97, -84.9, 9.55)"/><rect class="cls-6" x="110.39" y="268.14" width="97.77" height="18.33" rx="2.01"/><path class="cls-10" d="M51.07,436.39,56,477.17,26.2,485.4s-5.62-35.14-2.89-57.58l9.84,12.93Z" transform="translate(-21.68 -33.57)"/><path class="cls-11" d="M199.11,330.91l22.38-37.28L290.08,331c-3.14-43.1,26.44-105.14,57.51-101.36,54.51,6.63,14.35,141-21.35,164.66S199.11,330.91,199.11,330.91Z" transform="translate(-21.68 -33.57)"/><path class="cls-12" d="M369.29,312.07c-8.43,35.35-26.24,71.05-43.05,82.21C290.53,418,199.11,330.91,199.11,330.91l22.38-37.28L290.08,331l23.31-58.49" transform="translate(-21.68 -33.57)"/><path class="cls-8" d="M217.41,290.8l4.29,3.07-22.54,37.07L192.27,326a21.64,21.64,0,1,1,25.14-35.23Z" transform="translate(-21.68 -33.57)"/></g></svg>